%TF.GenerationSoftware,KiCad,Pcbnew,10.0.3*%
%TF.CreationDate,2026-06-16T17:33:50-07:00*%
%TF.ProjectId,Transmitter PCB,5472616e-736d-4697-9474-657220504342,rev?*%
%TF.SameCoordinates,Original*%
%TF.FileFunction,Soldermask,Bot*%
%TF.FilePolarity,Negative*%
%FSLAX46Y46*%
G04 Gerber Fmt 4.6, Leading zero omitted, Abs format (unit mm)*
G04 Created by KiCad (PCBNEW 10.0.3) date 2026-06-16 17:33:50*
%MOMM*%
%LPD*%
G01*
G04 APERTURE LIST*
G04 Aperture macros list*
%AMRoundRect*
0 Rectangle with rounded corners*
0 $1 Rounding radius*
0 $2 $3 $4 $5 $6 $7 $8 $9 X,Y pos of 4 corners*
0 Add a 4 corners polygon primitive as box body*
4,1,4,$2,$3,$4,$5,$6,$7,$8,$9,$2,$3,0*
0 Add four circle primitives for the rounded corners*
1,1,$1+$1,$2,$3*
1,1,$1+$1,$4,$5*
1,1,$1+$1,$6,$7*
1,1,$1+$1,$8,$9*
0 Add four rect primitives between the rounded corners*
20,1,$1+$1,$2,$3,$4,$5,0*
20,1,$1+$1,$4,$5,$6,$7,0*
20,1,$1+$1,$6,$7,$8,$9,0*
20,1,$1+$1,$8,$9,$2,$3,0*%
G04 Aperture macros list end*
%ADD10C,2.204000*%
%ADD11RoundRect,0.102000X-1.000000X-1.000000X1.000000X-1.000000X1.000000X1.000000X-1.000000X1.000000X0*%
%ADD12C,3.000000*%
%ADD13R,1.700000X1.700000*%
%ADD14C,1.700000*%
%ADD15C,1.600000*%
%ADD16RoundRect,0.250000X-0.550000X-0.550000X0.550000X-0.550000X0.550000X0.550000X-0.550000X0.550000X0*%
%ADD17C,2.109000*%
%ADD18C,3.200000*%
%ADD19C,1.712000*%
%ADD20O,1.200000X1.750000*%
%ADD21RoundRect,0.250000X0.350000X0.625000X-0.350000X0.625000X-0.350000X-0.625000X0.350000X-0.625000X0*%
G04 APERTURE END LIST*
D10*
%TO.C,U1*%
X147600000Y-66120000D03*
X147600000Y-68660000D03*
X147600000Y-71200000D03*
X147600000Y-73740000D03*
X147600000Y-76280000D03*
X147600000Y-78820000D03*
X147600000Y-81360000D03*
X147600000Y-83900000D03*
X147600000Y-86440000D03*
X147600000Y-88980000D03*
X147600000Y-91520000D03*
X147600000Y-94060000D03*
X147600000Y-96600000D03*
X147600000Y-99140000D03*
X147600000Y-101680000D03*
X122200000Y-101680000D03*
X122200000Y-99140000D03*
X122200000Y-96600000D03*
X122200000Y-94060000D03*
X122200000Y-91520000D03*
X122200000Y-88980000D03*
X122200000Y-86440000D03*
X122200000Y-83900000D03*
X122200000Y-81360000D03*
X122200000Y-78820000D03*
X122200000Y-76280000D03*
X122200000Y-73740000D03*
X122200000Y-71200000D03*
X122200000Y-68660000D03*
D11*
X122200000Y-66120000D03*
D12*
X147130000Y-105110000D03*
X147130000Y-58160000D03*
X122620000Y-105110000D03*
X122620000Y-58160000D03*
%TD*%
D13*
%TO.C,J2*%
X100400000Y-73400000D03*
D14*
X100400000Y-75940000D03*
X100400000Y-78480000D03*
%TD*%
D15*
%TO.C,C1*%
X114869887Y-75750000D03*
D16*
X112869887Y-75750000D03*
%TD*%
D17*
%TO.C,U2*%
X102800000Y-95420000D03*
X102800000Y-92880000D03*
X102800000Y-105580000D03*
X102800000Y-97960000D03*
X102800000Y-100500000D03*
X102800000Y-87800000D03*
X102800000Y-103040000D03*
X102800000Y-90340000D03*
D18*
X91040000Y-88630000D03*
X91040000Y-104750000D03*
%TD*%
D19*
%TO.C,S1*%
X109500000Y-64200000D03*
X112000000Y-64200000D03*
X114500000Y-64200000D03*
%TD*%
D20*
%TO.C,J1*%
X95075000Y-64025000D03*
D21*
X97075000Y-64025000D03*
%TD*%
M02*
