M48
; DRILL file KiCad 10.0.3 date 2026-06-16T17:35:20
; FORMAT={-:-/ absolute / metric / decimal}
; #@! TF.CreationDate,2026-06-16T17:35:20-07:00
; #@! TF.GenerationSoftware,Kicad,Pcbnew,10.0.3
; #@! TF.FileFunction,Plated,1,2,PTH
FMAT,2
METRIC
; #@! TA.AperFunction,Plated,PTH,ComponentDrill
T1C0.750
; #@! TA.AperFunction,Plated,PTH,ComponentDrill
T2C0.800
; #@! TA.AperFunction,Plated,PTH,ComponentDrill
T3C1.000
; #@! TA.AperFunction,Plated,PTH,ComponentDrill
T4C1.020
; #@! TA.AperFunction,Plated,PTH,ComponentDrill
T5C1.270
%
G90
G05
T1
X95.075Y-64.025
X97.075Y-64.025
T2
X112.87Y-75.75
X114.87Y-75.75
T3
X100.4Y-73.4
X100.4Y-75.94
X100.4Y-78.48
X109.5Y-64.2
X112.0Y-64.2
X114.5Y-64.2
T4
X122.2Y-66.12
X122.2Y-68.66
X122.2Y-71.2
X122.2Y-73.74
X122.2Y-76.28
X122.2Y-78.82
X122.2Y-81.36
X122.2Y-83.9
X122.2Y-86.44
X122.2Y-88.98
X122.2Y-91.52
X122.2Y-94.06
X122.2Y-96.6
X122.2Y-99.14
X122.2Y-101.68
X147.6Y-66.12
X147.6Y-68.66
X147.6Y-71.2
X147.6Y-73.74
X147.6Y-76.28
X147.6Y-78.82
X147.6Y-81.36
X147.6Y-83.9
X147.6Y-86.44
X147.6Y-88.98
X147.6Y-91.52
X147.6Y-94.06
X147.6Y-96.6
X147.6Y-99.14
X147.6Y-101.68
T5
X102.8Y-87.8
X102.8Y-90.34
X102.8Y-92.88
X102.8Y-95.42
X102.8Y-97.96
X102.8Y-100.5
X102.8Y-103.04
X102.8Y-105.58
M30
