%TF.GenerationSoftware,KiCad,Pcbnew,10.0.3*%
%TF.CreationDate,2026-06-16T17:33:50-07:00*%
%TF.ProjectId,Transmitter PCB,5472616e-736d-4697-9474-657220504342,rev?*%
%TF.SameCoordinates,Original*%
%TF.FileFunction,Copper,L2,Bot*%
%TF.FilePolarity,Positive*%
%FSLAX46Y46*%
G04 Gerber Fmt 4.6, Leading zero omitted, Abs format (unit mm)*
G04 Created by KiCad (PCBNEW 10.0.3) date 2026-06-16 17:33:50*
%MOMM*%
%LPD*%
G01*
G04 APERTURE LIST*
G04 Aperture macros list*
%AMRoundRect*
0 Rectangle with rounded corners*
0 $1 Rounding radius*
0 $2 $3 $4 $5 $6 $7 $8 $9 X,Y pos of 4 corners*
0 Add a 4 corners polygon primitive as box body*
4,1,4,$2,$3,$4,$5,$6,$7,$8,$9,$2,$3,0*
0 Add four circle primitives for the rounded corners*
1,1,$1+$1,$2,$3*
1,1,$1+$1,$4,$5*
1,1,$1+$1,$6,$7*
1,1,$1+$1,$8,$9*
0 Add four rect primitives between the rounded corners*
20,1,$1+$1,$2,$3,$4,$5,0*
20,1,$1+$1,$4,$5,$6,$7,0*
20,1,$1+$1,$6,$7,$8,$9,0*
20,1,$1+$1,$8,$9,$2,$3,0*%
G04 Aperture macros list end*
%TA.AperFunction,ComponentPad*%
%ADD10C,2.000000*%
%TD*%
%TA.AperFunction,ComponentPad*%
%ADD11R,2.000000X2.000000*%
%TD*%
%TA.AperFunction,ComponentPad*%
%ADD12R,1.700000X1.700000*%
%TD*%
%TA.AperFunction,ComponentPad*%
%ADD13C,1.700000*%
%TD*%
%TA.AperFunction,ComponentPad*%
%ADD14C,1.600000*%
%TD*%
%TA.AperFunction,ComponentPad*%
%ADD15RoundRect,0.250000X-0.550000X-0.550000X0.550000X-0.550000X0.550000X0.550000X-0.550000X0.550000X0*%
%TD*%
%TA.AperFunction,ComponentPad*%
%ADD16C,1.905000*%
%TD*%
%TA.AperFunction,ComponentPad*%
%ADD17C,1.508000*%
%TD*%
%TA.AperFunction,ComponentPad*%
%ADD18O,1.200000X1.750000*%
%TD*%
%TA.AperFunction,ComponentPad*%
%ADD19RoundRect,0.250000X0.350000X0.625000X-0.350000X0.625000X-0.350000X-0.625000X0.350000X-0.625000X0*%
%TD*%
G04 APERTURE END LIST*
D10*
%TO.P,U1,30,VIN_30*%
%TO.N,Net-(J2-Pin_3)*%
X147600000Y-66120000D03*
%TO.P,U1,29,GND_29*%
%TO.N,GND*%
X147600000Y-68660000D03*
%TO.P,U1,28,D13_28*%
%TO.N,unconnected-(U1-D13-Pad28)*%
X147600000Y-71200000D03*
%TO.P,U1,27,D12_27*%
%TO.N,unconnected-(U1-D12-Pad27)*%
X147600000Y-73740000D03*
%TO.P,U1,26,D14_26*%
%TO.N,unconnected-(U1-D14-Pad26)*%
X147600000Y-76280000D03*
%TO.P,U1,25,D27_25*%
%TO.N,unconnected-(U1-D27-Pad25)*%
X147600000Y-78820000D03*
%TO.P,U1,24,D26_24*%
%TO.N,unconnected-(U1-D26-Pad24)*%
X147600000Y-81360000D03*
%TO.P,U1,23,D25_23*%
%TO.N,unconnected-(U1-D25-Pad23)*%
X147600000Y-83900000D03*
%TO.P,U1,22,D33_22*%
%TO.N,unconnected-(U1-D33-Pad22)*%
X147600000Y-86440000D03*
%TO.P,U1,21,D32_21*%
%TO.N,unconnected-(U1-D32-Pad21)*%
X147600000Y-88980000D03*
%TO.P,U1,20,D35_20*%
%TO.N,unconnected-(U1-D35-Pad20)*%
X147600000Y-91520000D03*
%TO.P,U1,19,D34_19*%
%TO.N,unconnected-(U1-D34-Pad19)*%
X147600000Y-94060000D03*
%TO.P,U1,18,VN_18*%
%TO.N,unconnected-(U1-VN-Pad18)*%
X147600000Y-96600000D03*
%TO.P,U1,17,VP_17*%
%TO.N,unconnected-(U1-VP-Pad17)*%
X147600000Y-99140000D03*
%TO.P,U1,16,EN_16*%
%TO.N,unconnected-(U1-EN-Pad16)*%
X147600000Y-101680000D03*
%TO.P,U1,15,D23_15*%
%TO.N,unconnected-(U1-D23-Pad15)*%
X122200000Y-101680000D03*
%TO.P,U1,14,D22_14*%
%TO.N,Net-(U1-D22)*%
X122200000Y-99140000D03*
%TO.P,U1,13,TX0_13*%
%TO.N,unconnected-(U1-TX0-Pad13)*%
X122200000Y-96600000D03*
%TO.P,U1,12,RX0_12*%
%TO.N,unconnected-(U1-RX0-Pad12)*%
X122200000Y-94060000D03*
%TO.P,U1,11,D21_11*%
%TO.N,Net-(U1-D21)*%
X122200000Y-91520000D03*
%TO.P,U1,10,D19_10*%
%TO.N,unconnected-(U1-D19-Pad10)*%
X122200000Y-88980000D03*
%TO.P,U1,9,D18_9*%
%TO.N,unconnected-(U1-D18-Pad9)*%
X122200000Y-86440000D03*
%TO.P,U1,8,D5_8*%
%TO.N,unconnected-(U1-D5-Pad8)*%
X122200000Y-83900000D03*
%TO.P,U1,7,TX2_7*%
%TO.N,unconnected-(U1-TX2-Pad7)*%
X122200000Y-81360000D03*
%TO.P,U1,6,RX2_6*%
%TO.N,unconnected-(U1-RX2-Pad6)*%
X122200000Y-78820000D03*
%TO.P,U1,5,D4_5*%
%TO.N,unconnected-(U1-D4-Pad5)*%
X122200000Y-76280000D03*
%TO.P,U1,4,D2_4*%
%TO.N,unconnected-(U1-D2-Pad4)*%
X122200000Y-73740000D03*
%TO.P,U1,3,D15_3*%
%TO.N,unconnected-(U1-D15-Pad3)*%
X122200000Y-71200000D03*
%TO.P,U1,2,GND_2*%
%TO.N,GND*%
X122200000Y-68660000D03*
D11*
%TO.P,U1,1,3V3_1*%
%TO.N,unconnected-(U1-3V3-Pad1)*%
X122200000Y-66120000D03*
%TD*%
D12*
%TO.P,J2,1,Pin_1_1*%
%TO.N,Net-(J2-Pin_1)*%
X100400000Y-73400000D03*
D13*
%TO.P,J2,2,Pin_2_2*%
%TO.N,GND*%
X100400000Y-75940000D03*
%TO.P,J2,3,Pin_3_3*%
%TO.N,Net-(J2-Pin_3)*%
X100400000Y-78480000D03*
%TD*%
D14*
%TO.P,C1,2*%
%TO.N,GND*%
X114869887Y-75750000D03*
D15*
%TO.P,C1,1*%
%TO.N,Net-(J2-Pin_3)*%
X112869887Y-75750000D03*
%TD*%
D16*
%TO.P,U2,XDA,XDA_XDA*%
%TO.N,unconnected-(U2-PadXDA)*%
X102800000Y-95420000D03*
%TO.P,U2,XCL,XCL_XCL*%
%TO.N,unconnected-(U2-PadXCL)*%
X102800000Y-92880000D03*
%TO.P,U2,VCC,VCC_VCC*%
%TO.N,Net-(J2-Pin_3)*%
X102800000Y-105580000D03*
%TO.P,U2,SDA,SDA_SDA*%
%TO.N,Net-(U1-D21)*%
X102800000Y-97960000D03*
%TO.P,U2,SCL,SCL_SCL*%
%TO.N,Net-(U1-D22)*%
X102800000Y-100500000D03*
%TO.P,U2,INT,INT_INT*%
%TO.N,unconnected-(U2-PadINT)*%
X102800000Y-87800000D03*
%TO.P,U2,GND,GND_GND*%
%TO.N,GND*%
X102800000Y-103040000D03*
%TO.P,U2,AD0,AD0_AD0*%
%TO.N,unconnected-(U2-PadAD0)*%
X102800000Y-90340000D03*
%TD*%
D17*
%TO.P,S1,1*%
%TO.N,unconnected-(S1-Pad1)*%
X109500000Y-64200000D03*
%TO.P,S1,2*%
%TO.N,Net-(J1-Pin_1)*%
X112000000Y-64200000D03*
%TO.P,S1,3*%
%TO.N,Net-(J2-Pin_1)*%
X114500000Y-64200000D03*
%TD*%
D18*
%TO.P,J1,2,Pin_2_2*%
%TO.N,GND*%
X95075000Y-64025000D03*
D19*
%TO.P,J1,1,Pin_1_1*%
%TO.N,Net-(J1-Pin_1)*%
X97075000Y-64025000D03*
%TD*%
M02*
