%TF.GenerationSoftware,KiCad,Pcbnew,10.0.3*%
%TF.CreationDate,2026-06-21T13:31:57-07:00*%
%TF.ProjectId,Receiver PCB,52656365-6976-4657-9220-5043422e6b69,rev?*%
%TF.SameCoordinates,Original*%
%TF.FileFunction,Legend,Top*%
%TF.FilePolarity,Positive*%
%FSLAX46Y46*%
G04 Gerber Fmt 4.6, Leading zero omitted, Abs format (unit mm)*
G04 Created by KiCad (PCBNEW 10.0.3) date 2026-06-21 13:31:57*
%MOMM*%
%LPD*%
G01*
G04 APERTURE LIST*
%ADD10C,0.150000*%
%ADD11C,0.100000*%
%ADD12C,0.127000*%
%ADD13C,0.200000*%
%ADD14C,0.120000*%
G04 APERTURE END LIST*
D10*
X118283095Y-71689819D02*
X118283095Y-72499342D01*
X118283095Y-72499342D02*
X118330714Y-72594580D01*
X118330714Y-72594580D02*
X118378333Y-72642200D01*
X118378333Y-72642200D02*
X118473571Y-72689819D01*
X118473571Y-72689819D02*
X118664047Y-72689819D01*
X118664047Y-72689819D02*
X118759285Y-72642200D01*
X118759285Y-72642200D02*
X118806904Y-72594580D01*
X118806904Y-72594580D02*
X118854523Y-72499342D01*
X118854523Y-72499342D02*
X118854523Y-71689819D01*
X119854523Y-72689819D02*
X119283095Y-72689819D01*
X119568809Y-72689819D02*
X119568809Y-71689819D01*
X119568809Y-71689819D02*
X119473571Y-71832676D01*
X119473571Y-71832676D02*
X119378333Y-71927914D01*
X119378333Y-71927914D02*
X119283095Y-71975533D01*
X105116666Y-71104819D02*
X105116666Y-71819104D01*
X105116666Y-71819104D02*
X105069047Y-71961961D01*
X105069047Y-71961961D02*
X104973809Y-72057200D01*
X104973809Y-72057200D02*
X104830952Y-72104819D01*
X104830952Y-72104819D02*
X104735714Y-72104819D01*
X106116666Y-72104819D02*
X105545238Y-72104819D01*
X105830952Y-72104819D02*
X105830952Y-71104819D01*
X105830952Y-71104819D02*
X105735714Y-71247676D01*
X105735714Y-71247676D02*
X105640476Y-71342914D01*
X105640476Y-71342914D02*
X105545238Y-71390533D01*
X112666666Y-114934819D02*
X112666666Y-115649104D01*
X112666666Y-115649104D02*
X112619047Y-115791961D01*
X112619047Y-115791961D02*
X112523809Y-115887200D01*
X112523809Y-115887200D02*
X112380952Y-115934819D01*
X112380952Y-115934819D02*
X112285714Y-115934819D01*
X113095238Y-115030057D02*
X113142857Y-114982438D01*
X113142857Y-114982438D02*
X113238095Y-114934819D01*
X113238095Y-114934819D02*
X113476190Y-114934819D01*
X113476190Y-114934819D02*
X113571428Y-114982438D01*
X113571428Y-114982438D02*
X113619047Y-115030057D01*
X113619047Y-115030057D02*
X113666666Y-115125295D01*
X113666666Y-115125295D02*
X113666666Y-115220533D01*
X113666666Y-115220533D02*
X113619047Y-115363390D01*
X113619047Y-115363390D02*
X113047619Y-115934819D01*
X113047619Y-115934819D02*
X113666666Y-115934819D01*
X147916666Y-117274819D02*
X147916666Y-117989104D01*
X147916666Y-117989104D02*
X147869047Y-118131961D01*
X147869047Y-118131961D02*
X147773809Y-118227200D01*
X147773809Y-118227200D02*
X147630952Y-118274819D01*
X147630952Y-118274819D02*
X147535714Y-118274819D01*
X148297619Y-117274819D02*
X148916666Y-117274819D01*
X148916666Y-117274819D02*
X148583333Y-117655771D01*
X148583333Y-117655771D02*
X148726190Y-117655771D01*
X148726190Y-117655771D02*
X148821428Y-117703390D01*
X148821428Y-117703390D02*
X148869047Y-117751009D01*
X148869047Y-117751009D02*
X148916666Y-117846247D01*
X148916666Y-117846247D02*
X148916666Y-118084342D01*
X148916666Y-118084342D02*
X148869047Y-118179580D01*
X148869047Y-118179580D02*
X148821428Y-118227200D01*
X148821428Y-118227200D02*
X148726190Y-118274819D01*
X148726190Y-118274819D02*
X148440476Y-118274819D01*
X148440476Y-118274819D02*
X148345238Y-118227200D01*
X148345238Y-118227200D02*
X148297619Y-118179580D01*
D11*
X106746666Y-130377419D02*
X106746666Y-131091704D01*
X106746666Y-131091704D02*
X106699047Y-131234561D01*
X106699047Y-131234561D02*
X106603809Y-131329800D01*
X106603809Y-131329800D02*
X106460952Y-131377419D01*
X106460952Y-131377419D02*
X106365714Y-131377419D01*
X107699047Y-130377419D02*
X107222857Y-130377419D01*
X107222857Y-130377419D02*
X107175238Y-130853609D01*
X107175238Y-130853609D02*
X107222857Y-130805990D01*
X107222857Y-130805990D02*
X107318095Y-130758371D01*
X107318095Y-130758371D02*
X107556190Y-130758371D01*
X107556190Y-130758371D02*
X107651428Y-130805990D01*
X107651428Y-130805990D02*
X107699047Y-130853609D01*
X107699047Y-130853609D02*
X107746666Y-130948847D01*
X107746666Y-130948847D02*
X107746666Y-131186942D01*
X107746666Y-131186942D02*
X107699047Y-131282180D01*
X107699047Y-131282180D02*
X107651428Y-131329800D01*
X107651428Y-131329800D02*
X107556190Y-131377419D01*
X107556190Y-131377419D02*
X107318095Y-131377419D01*
X107318095Y-131377419D02*
X107222857Y-131329800D01*
X107222857Y-131329800D02*
X107175238Y-131282180D01*
D10*
X102001667Y-80807200D02*
X102144524Y-80854819D01*
X102144524Y-80854819D02*
X102382619Y-80854819D01*
X102382619Y-80854819D02*
X102477857Y-80807200D01*
X102477857Y-80807200D02*
X102525476Y-80759580D01*
X102525476Y-80759580D02*
X102573095Y-80664342D01*
X102573095Y-80664342D02*
X102573095Y-80569104D01*
X102573095Y-80569104D02*
X102525476Y-80473866D01*
X102525476Y-80473866D02*
X102477857Y-80426247D01*
X102477857Y-80426247D02*
X102382619Y-80378628D01*
X102382619Y-80378628D02*
X102192143Y-80331009D01*
X102192143Y-80331009D02*
X102096905Y-80283390D01*
X102096905Y-80283390D02*
X102049286Y-80235771D01*
X102049286Y-80235771D02*
X102001667Y-80140533D01*
X102001667Y-80140533D02*
X102001667Y-80045295D01*
X102001667Y-80045295D02*
X102049286Y-79950057D01*
X102049286Y-79950057D02*
X102096905Y-79902438D01*
X102096905Y-79902438D02*
X102192143Y-79854819D01*
X102192143Y-79854819D02*
X102430238Y-79854819D01*
X102430238Y-79854819D02*
X102573095Y-79902438D01*
X102906429Y-79854819D02*
X103144524Y-80854819D01*
X103144524Y-80854819D02*
X103335000Y-80140533D01*
X103335000Y-80140533D02*
X103525476Y-80854819D01*
X103525476Y-80854819D02*
X103763572Y-79854819D01*
X104668333Y-80854819D02*
X104096905Y-80854819D01*
X104382619Y-80854819D02*
X104382619Y-79854819D01*
X104382619Y-79854819D02*
X104287381Y-79997676D01*
X104287381Y-79997676D02*
X104192143Y-80092914D01*
X104192143Y-80092914D02*
X104096905Y-80140533D01*
X97694819Y-93083333D02*
X98409104Y-93083333D01*
X98409104Y-93083333D02*
X98551961Y-93130952D01*
X98551961Y-93130952D02*
X98647200Y-93226190D01*
X98647200Y-93226190D02*
X98694819Y-93369047D01*
X98694819Y-93369047D02*
X98694819Y-93464285D01*
X98028152Y-92178571D02*
X98694819Y-92178571D01*
X97647200Y-92416666D02*
X98361485Y-92654761D01*
X98361485Y-92654761D02*
X98361485Y-92035714D01*
%TO.C,U1*%
D12*
X116120000Y-74120000D02*
X127189000Y-74120000D01*
X116120000Y-74120000D02*
X144630000Y-74120000D01*
X116120000Y-125070000D02*
X116120000Y-74120000D01*
X116120000Y-125070000D02*
X116120000Y-74120000D01*
X116120000Y-125070000D02*
X121490000Y-125070000D01*
X121490000Y-125070000D02*
X139180000Y-125070000D01*
X127189000Y-74120000D02*
X133900000Y-74120000D01*
X133900000Y-74120000D02*
X144630000Y-74120000D01*
X139180000Y-125070000D02*
X144630000Y-125070000D01*
X144630000Y-74120000D02*
X144630000Y-125070000D01*
X144630000Y-74120000D02*
X144630000Y-125070000D01*
X144630000Y-125070000D02*
X116120000Y-125070000D01*
D13*
X115650000Y-84080000D02*
G75*
G02*
X115450000Y-84080000I-100000J0D01*
G01*
X115450000Y-84080000D02*
G75*
G02*
X115650000Y-84080000I100000J0D01*
G01*
%TO.C,J1*%
D14*
X102090000Y-72440000D02*
X102090000Y-73690000D01*
X102390000Y-74050000D02*
X103000000Y-74050000D01*
X102390000Y-75350000D02*
X103000000Y-75350000D01*
X103000000Y-73350000D02*
X103000000Y-76850000D01*
X103000000Y-76850000D02*
X107900000Y-76850000D01*
X103340000Y-72440000D02*
X102090000Y-72440000D01*
X103850000Y-72540000D02*
X103850000Y-72740000D01*
X104150000Y-72540000D02*
X103850000Y-72540000D01*
X104150000Y-72640000D02*
X103850000Y-72640000D01*
X104150000Y-72740000D02*
X104150000Y-72540000D01*
X104950000Y-72740000D02*
X104950000Y-73350000D01*
X104950000Y-73350000D02*
X103000000Y-73350000D01*
X105350000Y-76350000D02*
X105550000Y-76350000D01*
X105350000Y-76850000D02*
X105350000Y-76350000D01*
X105450000Y-76850000D02*
X105450000Y-76350000D01*
X105550000Y-76350000D02*
X105550000Y-76850000D01*
X105950000Y-73350000D02*
X105950000Y-72740000D01*
X107900000Y-73350000D02*
X105950000Y-73350000D01*
X107900000Y-76850000D02*
X107900000Y-73350000D01*
X108510000Y-74050000D02*
X107900000Y-74050000D01*
X108510000Y-75350000D02*
X107900000Y-75350000D01*
X102390000Y-72740000D02*
X108510000Y-72740000D01*
X108510000Y-77460000D01*
X102390000Y-77460000D01*
X102390000Y-72740000D01*
%TO.C,J2*%
X111620000Y-116480000D02*
X113000000Y-116480000D01*
X111620000Y-117860000D02*
X111620000Y-116480000D01*
X111620000Y-119130000D02*
X111620000Y-124320000D01*
X111620000Y-119130000D02*
X114380000Y-119130000D01*
X111620000Y-124320000D02*
X114380000Y-124320000D01*
X114380000Y-119130000D02*
X114380000Y-124320000D01*
%TO.C,J3*%
X146870000Y-114170000D02*
X146870000Y-108980000D01*
X149630000Y-108980000D02*
X146870000Y-108980000D01*
X149630000Y-114170000D02*
X146870000Y-114170000D01*
X149630000Y-114170000D02*
X149630000Y-108980000D01*
X149630000Y-115440000D02*
X149630000Y-116820000D01*
X149630000Y-116820000D02*
X148250000Y-116820000D01*
%TO.C,J5*%
D11*
X98580000Y-122420000D02*
X106580000Y-122420000D01*
X106580000Y-125420000D01*
X98580000Y-125420000D01*
X98580000Y-122420000D01*
%TO.C,SW1*%
D12*
X100075000Y-81575000D02*
X111675000Y-81575000D01*
X100075000Y-85575000D02*
X100075000Y-81575000D01*
X111675000Y-81575000D02*
X111675000Y-85575000D01*
X111675000Y-85575000D02*
X100075000Y-85575000D01*
D13*
X103475000Y-86075000D02*
G75*
G02*
X103275000Y-86075000I-100000J0D01*
G01*
X103275000Y-86075000D02*
G75*
G02*
X103475000Y-86075000I100000J0D01*
G01*
%TO.C,J4*%
D14*
X99240000Y-94130000D02*
X99240000Y-92750000D01*
X100620000Y-94130000D02*
X99240000Y-94130000D01*
X101890000Y-91370000D02*
X112160000Y-91370000D01*
X101890000Y-94130000D02*
X101890000Y-91370000D01*
X101890000Y-94130000D02*
X112160000Y-94130000D01*
X112160000Y-94130000D02*
X112160000Y-91370000D01*
%TD*%
M02*
