%TF.GenerationSoftware,KiCad,Pcbnew,10.0.3*%
%TF.CreationDate,2026-06-21T13:31:57-07:00*%
%TF.ProjectId,Receiver PCB,52656365-6976-4657-9220-5043422e6b69,rev?*%
%TF.SameCoordinates,Original*%
%TF.FileFunction,Copper,L1,Top*%
%TF.FilePolarity,Positive*%
%FSLAX46Y46*%
G04 Gerber Fmt 4.6, Leading zero omitted, Abs format (unit mm)*
G04 Created by KiCad (PCBNEW 10.0.3) date 2026-06-21 13:31:57*
%MOMM*%
%LPD*%
G01*
G04 APERTURE LIST*
G04 Aperture macros list*
%AMRoundRect*
0 Rectangle with rounded corners*
0 $1 Rounding radius*
0 $2 $3 $4 $5 $6 $7 $8 $9 X,Y pos of 4 corners*
0 Add a 4 corners polygon primitive as box body*
4,1,4,$2,$3,$4,$5,$6,$7,$8,$9,$2,$3,0*
0 Add four circle primitives for the rounded corners*
1,1,$1+$1,$2,$3*
1,1,$1+$1,$4,$5*
1,1,$1+$1,$6,$7*
1,1,$1+$1,$8,$9*
0 Add four rect primitives between the rounded corners*
20,1,$1+$1,$2,$3,$4,$5,0*
20,1,$1+$1,$4,$5,$6,$7,0*
20,1,$1+$1,$6,$7,$8,$9,0*
20,1,$1+$1,$8,$9,$2,$3,0*%
G04 Aperture macros list end*
%TA.AperFunction,ComponentPad*%
%ADD10R,2.000000X2.000000*%
%TD*%
%TA.AperFunction,ComponentPad*%
%ADD11C,2.000000*%
%TD*%
%TA.AperFunction,ComponentPad*%
%ADD12RoundRect,0.250000X-0.350000X-0.625000X0.350000X-0.625000X0.350000X0.625000X-0.350000X0.625000X0*%
%TD*%
%TA.AperFunction,ComponentPad*%
%ADD13O,1.200000X1.750000*%
%TD*%
%TA.AperFunction,ComponentPad*%
%ADD14R,1.700000X1.700000*%
%TD*%
%TA.AperFunction,ComponentPad*%
%ADD15C,1.700000*%
%TD*%
%TA.AperFunction,ComponentPad*%
%ADD16RoundRect,0.225000X-0.525000X-0.775000X0.525000X-0.775000X0.525000X0.775000X-0.525000X0.775000X0*%
%TD*%
%TA.AperFunction,ComponentPad*%
%ADD17C,1.508000*%
%TD*%
%TA.AperFunction,Conductor*%
%ADD18C,0.500000*%
%TD*%
%TA.AperFunction,Conductor*%
%ADD19C,1.000000*%
%TD*%
G04 APERTURE END LIST*
D10*
%TO.P,U1,1,3V3_1*%
%TO.N,unconnected-(U1-3V3-Pad1)*%
X117700000Y-84080000D03*
D11*
%TO.P,U1,2,GND_2*%
%TO.N,GND*%
X117700000Y-86620000D03*
%TO.P,U1,3,D15_3*%
%TO.N,unconnected-(U1-D15-Pad3)*%
X117700000Y-89160000D03*
%TO.P,U1,4,D2_4*%
%TO.N,unconnected-(U1-D2-Pad4)*%
X117700000Y-91700000D03*
%TO.P,U1,5,D4_5*%
%TO.N,unconnected-(U1-D4-Pad5)*%
X117700000Y-94240000D03*
%TO.P,U1,6,RX2_6*%
%TO.N,unconnected-(U1-RX2-Pad6)*%
X117700000Y-96780000D03*
%TO.P,U1,7,TX2_7*%
%TO.N,unconnected-(U1-TX2-Pad7)*%
X117700000Y-99320000D03*
%TO.P,U1,8,D5_8*%
%TO.N,unconnected-(U1-D5-Pad8)*%
X117700000Y-101860000D03*
%TO.P,U1,9,D18_9*%
%TO.N,Net-(J2-Pin_1)*%
X117700000Y-104400000D03*
%TO.P,U1,10,D19_10*%
%TO.N,Net-(J3-Pin_1)*%
X117700000Y-106940000D03*
%TO.P,U1,11,D21_11*%
%TO.N,unconnected-(U1-D21-Pad11)*%
X117700000Y-109480000D03*
%TO.P,U1,12,RX0_12*%
%TO.N,unconnected-(U1-RX0-Pad12)*%
X117700000Y-112020000D03*
%TO.P,U1,13,TX0_13*%
%TO.N,unconnected-(U1-TX0-Pad13)*%
X117700000Y-114560000D03*
%TO.P,U1,14,D22_14*%
%TO.N,unconnected-(U1-D22-Pad14)*%
X117700000Y-117100000D03*
%TO.P,U1,15,D23_15*%
%TO.N,unconnected-(U1-D23-Pad15)*%
X117700000Y-119640000D03*
%TO.P,U1,16,EN_16*%
%TO.N,unconnected-(U1-EN-Pad16)*%
X143100000Y-119640000D03*
%TO.P,U1,17,VP_17*%
%TO.N,unconnected-(U1-VP-Pad17)*%
X143100000Y-117100000D03*
%TO.P,U1,18,VN_18*%
%TO.N,unconnected-(U1-VN-Pad18)*%
X143100000Y-114560000D03*
%TO.P,U1,19,D34_19*%
%TO.N,unconnected-(U1-D34-Pad19)*%
X143100000Y-112020000D03*
%TO.P,U1,20,D35_20*%
%TO.N,unconnected-(U1-D35-Pad20)*%
X143100000Y-109480000D03*
%TO.P,U1,21,D32_21*%
%TO.N,unconnected-(U1-D32-Pad21)*%
X143100000Y-106940000D03*
%TO.P,U1,22,D33_22*%
%TO.N,unconnected-(U1-D33-Pad22)*%
X143100000Y-104400000D03*
%TO.P,U1,23,D25_23*%
%TO.N,unconnected-(U1-D25-Pad23)*%
X143100000Y-101860000D03*
%TO.P,U1,24,D26_24*%
%TO.N,unconnected-(U1-D26-Pad24)*%
X143100000Y-99320000D03*
%TO.P,U1,25,D27_25*%
%TO.N,unconnected-(U1-D27-Pad25)*%
X143100000Y-96780000D03*
%TO.P,U1,26,D14_26*%
%TO.N,unconnected-(U1-D14-Pad26)*%
X143100000Y-94240000D03*
%TO.P,U1,27,D12_27*%
%TO.N,unconnected-(U1-D12-Pad27)*%
X143100000Y-91700000D03*
%TO.P,U1,28,D13_28*%
%TO.N,unconnected-(U1-D13-Pad28)*%
X143100000Y-89160000D03*
%TO.P,U1,29,GND_29*%
%TO.N,GND*%
X143100000Y-86620000D03*
%TO.P,U1,30,VIN_30*%
%TO.N,Net-(J2-Pin_2)*%
X143100000Y-84080000D03*
%TD*%
D12*
%TO.P,J1,1,Pin_1_1*%
%TO.N,Net-(J1-Pin_1)*%
X104450000Y-74550000D03*
D13*
%TO.P,J1,2,Pin_2_2*%
%TO.N,GND*%
X106450000Y-74550000D03*
%TD*%
D14*
%TO.P,J2,1,Pin_1_1*%
%TO.N,Net-(J2-Pin_1)*%
X113000000Y-117860000D03*
D15*
%TO.P,J2,2,Pin_2_2*%
%TO.N,Net-(J2-Pin_2)*%
X113000000Y-120400000D03*
%TO.P,J2,3,Pin_3_3*%
%TO.N,GND*%
X113000000Y-122940000D03*
%TD*%
D14*
%TO.P,J3,1,Pin_1_1*%
%TO.N,Net-(J3-Pin_1)*%
X148250000Y-115440000D03*
D15*
%TO.P,J3,2,Pin_2_2*%
%TO.N,Net-(J2-Pin_2)*%
X148250000Y-112900000D03*
%TO.P,J3,3,Pin_3_3*%
%TO.N,GND*%
X148250000Y-110360000D03*
%TD*%
D16*
%TO.P,J5,1,Pin_1_1*%
%TO.N,Net-(J1-Pin_1)*%
X100040000Y-123920000D03*
%TO.P,J5,2,Pin_2_2*%
%TO.N,GND*%
X102580000Y-123920000D03*
%TO.P,J5,3,Pin_3_3*%
%TO.N,unconnected-(J5-Pin_3-Pad3)*%
X105120000Y-123920000D03*
%TD*%
D17*
%TO.P,SW1,1,A_1*%
%TO.N,unconnected-(SW1-A-Pad1)*%
X103375000Y-83575000D03*
%TO.P,SW1,2,B_2*%
%TO.N,Net-(J1-Pin_1)*%
X105875000Y-83575000D03*
%TO.P,SW1,3,C_3*%
%TO.N,Net-(J4-Pin_2)*%
X108375000Y-83575000D03*
%TD*%
D14*
%TO.P,J4,1,Pin_1_1*%
%TO.N,unconnected-(J4-Pin_1-Pad1)*%
X100620000Y-92750000D03*
D15*
%TO.P,J4,2,Pin_2_2*%
%TO.N,Net-(J4-Pin_2)*%
X103160000Y-92750000D03*
%TO.P,J4,3,Pin_3_3*%
%TO.N,unconnected-(J4-Pin_3-Pad3)*%
X105700000Y-92750000D03*
%TO.P,J4,4,Pin_4_4*%
%TO.N,GND*%
X108240000Y-92750000D03*
%TO.P,J4,5,Pin_5_5*%
%TO.N,Net-(J2-Pin_2)*%
X110780000Y-92750000D03*
%TD*%
%TO.N,Net-(J2-Pin_1)*%
D18*
X113000000Y-109100000D02*
X117700000Y-104400000D01*
X113000000Y-117860000D02*
X113000000Y-109100000D01*
%TO.N,Net-(J3-Pin_1)*%
X143458427Y-125070000D02*
X141801573Y-125070000D01*
X140630000Y-123898427D02*
X140630000Y-119676446D01*
X127893554Y-106940000D02*
X117700000Y-106940000D01*
X140630000Y-119676446D02*
X127893554Y-106940000D01*
X148250000Y-115440000D02*
X148250000Y-120278427D01*
X148250000Y-120278427D02*
X143458427Y-125070000D01*
X141801573Y-125070000D02*
X140630000Y-123898427D01*
%TO.N,Net-(J2-Pin_2)*%
D19*
X109170000Y-122728244D02*
X109170000Y-113840000D01*
D18*
X143100000Y-84080000D02*
X139345000Y-80325000D01*
D19*
X111797919Y-120400000D02*
X110780000Y-119382081D01*
X112461756Y-126020000D02*
X109170000Y-122728244D01*
X109170000Y-113840000D02*
X110780000Y-112230000D01*
X110780000Y-112230000D02*
X110780000Y-92750000D01*
D18*
X116725000Y-80325000D02*
X111705000Y-85345000D01*
D19*
X143851929Y-126020000D02*
X112461756Y-126020000D01*
D18*
X139345000Y-80325000D02*
X116725000Y-80325000D01*
D19*
X148810000Y-112900000D02*
X149800000Y-113890000D01*
X110780000Y-119382081D02*
X110780000Y-112230000D01*
D18*
X111705000Y-85345000D02*
X111705000Y-91825000D01*
D19*
X113000000Y-120400000D02*
X111797919Y-120400000D01*
X149800000Y-113890000D02*
X149800000Y-120071929D01*
X148250000Y-112900000D02*
X148810000Y-112900000D01*
X149800000Y-120071929D02*
X143851929Y-126020000D01*
D18*
X111705000Y-91825000D02*
X110780000Y-92750000D01*
%TO.N,Net-(J1-Pin_1)*%
D19*
X99070000Y-122950000D02*
X99070000Y-83510000D01*
X104450000Y-74550000D02*
X104450000Y-78130000D01*
X104450000Y-78130000D02*
X104450000Y-82150000D01*
X100040000Y-123920000D02*
X99070000Y-122950000D01*
X104450000Y-82150000D02*
X105875000Y-83575000D01*
X99070000Y-83510000D02*
X104450000Y-78130000D01*
%TO.N,Net-(J4-Pin_2)*%
X108375000Y-87535000D02*
X103160000Y-92750000D01*
X108375000Y-83575000D02*
X108375000Y-87535000D01*
%TD*%
M02*
