M48
; DRILL file KiCad 10.0.3 date 2026-06-21T13:32:29
; FORMAT={-:-/ absolute / metric / decimal}
; #@! TF.CreationDate,2026-06-21T13:32:29-07:00
; #@! TF.GenerationSoftware,Kicad,Pcbnew,10.0.3
; #@! TF.FileFunction,Plated,1,2,PTH
FMAT,2
METRIC
; #@! TA.AperFunction,Plated,PTH,ComponentDrill
T1C0.750
; #@! TA.AperFunction,Plated,PTH,ComponentDrill
T2C0.800
; #@! TA.AperFunction,Plated,PTH,ComponentDrill
T3C1.000
; #@! TA.AperFunction,Plated,PTH,ComponentDrill
T4C1.020
%
G90
G05
T1
X104.45Y-74.55
X106.45Y-74.55
T2
X100.04Y-123.92
X102.58Y-123.92
X105.12Y-123.92
T3
X100.62Y-92.75
X103.16Y-92.75
X103.375Y-83.575
X105.7Y-92.75
X105.875Y-83.575
X108.24Y-92.75
X108.375Y-83.575
X110.78Y-92.75
X113.0Y-117.86
X113.0Y-120.4
X113.0Y-122.94
X148.25Y-110.36
X148.25Y-112.9
X148.25Y-115.44
T4
X117.7Y-84.08
X117.7Y-86.62
X117.7Y-89.16
X117.7Y-91.7
X117.7Y-94.24
X117.7Y-96.78
X117.7Y-99.32
X117.7Y-101.86
X117.7Y-104.4
X117.7Y-106.94
X117.7Y-109.48
X117.7Y-112.02
X117.7Y-114.56
X117.7Y-117.1
X117.7Y-119.64
X143.1Y-84.08
X143.1Y-86.62
X143.1Y-89.16
X143.1Y-91.7
X143.1Y-94.24
X143.1Y-96.78
X143.1Y-99.32
X143.1Y-101.86
X143.1Y-104.4
X143.1Y-106.94
X143.1Y-109.48
X143.1Y-112.02
X143.1Y-114.56
X143.1Y-117.1
X143.1Y-119.64
M30
