%TF.GenerationSoftware,KiCad,Pcbnew,10.0.3*%
%TF.CreationDate,2026-06-21T13:31:57-07:00*%
%TF.ProjectId,Receiver PCB,52656365-6976-4657-9220-5043422e6b69,rev?*%
%TF.SameCoordinates,Original*%
%TF.FileFunction,Soldermask,Top*%
%TF.FilePolarity,Negative*%
%FSLAX46Y46*%
G04 Gerber Fmt 4.6, Leading zero omitted, Abs format (unit mm)*
G04 Created by KiCad (PCBNEW 10.0.3) date 2026-06-21 13:31:57*
%MOMM*%
%LPD*%
G01*
G04 APERTURE LIST*
G04 Aperture macros list*
%AMRoundRect*
0 Rectangle with rounded corners*
0 $1 Rounding radius*
0 $2 $3 $4 $5 $6 $7 $8 $9 X,Y pos of 4 corners*
0 Add a 4 corners polygon primitive as box body*
4,1,4,$2,$3,$4,$5,$6,$7,$8,$9,$2,$3,0*
0 Add four circle primitives for the rounded corners*
1,1,$1+$1,$2,$3*
1,1,$1+$1,$4,$5*
1,1,$1+$1,$6,$7*
1,1,$1+$1,$8,$9*
0 Add four rect primitives between the rounded corners*
20,1,$1+$1,$2,$3,$4,$5,0*
20,1,$1+$1,$4,$5,$6,$7,0*
20,1,$1+$1,$6,$7,$8,$9,0*
20,1,$1+$1,$8,$9,$2,$3,0*%
G04 Aperture macros list end*
%ADD10C,3.000000*%
%ADD11RoundRect,0.102000X-1.000000X-1.000000X1.000000X-1.000000X1.000000X1.000000X-1.000000X1.000000X0*%
%ADD12C,2.204000*%
%ADD13RoundRect,0.250000X-0.350000X-0.625000X0.350000X-0.625000X0.350000X0.625000X-0.350000X0.625000X0*%
%ADD14O,1.200000X1.750000*%
%ADD15R,1.700000X1.700000*%
%ADD16C,1.700000*%
%ADD17RoundRect,0.225000X-0.525000X-0.775000X0.525000X-0.775000X0.525000X0.775000X-0.525000X0.775000X0*%
%ADD18C,1.712000*%
G04 APERTURE END LIST*
D10*
%TO.C,U1*%
X118120000Y-76120000D03*
X118120000Y-123070000D03*
X142630000Y-76120000D03*
X142630000Y-123070000D03*
D11*
X117700000Y-84080000D03*
D12*
X117700000Y-86620000D03*
X117700000Y-89160000D03*
X117700000Y-91700000D03*
X117700000Y-94240000D03*
X117700000Y-96780000D03*
X117700000Y-99320000D03*
X117700000Y-101860000D03*
X117700000Y-104400000D03*
X117700000Y-106940000D03*
X117700000Y-109480000D03*
X117700000Y-112020000D03*
X117700000Y-114560000D03*
X117700000Y-117100000D03*
X117700000Y-119640000D03*
X143100000Y-119640000D03*
X143100000Y-117100000D03*
X143100000Y-114560000D03*
X143100000Y-112020000D03*
X143100000Y-109480000D03*
X143100000Y-106940000D03*
X143100000Y-104400000D03*
X143100000Y-101860000D03*
X143100000Y-99320000D03*
X143100000Y-96780000D03*
X143100000Y-94240000D03*
X143100000Y-91700000D03*
X143100000Y-89160000D03*
X143100000Y-86620000D03*
X143100000Y-84080000D03*
%TD*%
D13*
%TO.C,J1*%
X104450000Y-74550000D03*
D14*
X106450000Y-74550000D03*
%TD*%
D15*
%TO.C,J2*%
X113000000Y-117860000D03*
D16*
X113000000Y-120400000D03*
X113000000Y-122940000D03*
%TD*%
D15*
%TO.C,J3*%
X148250000Y-115440000D03*
D16*
X148250000Y-112900000D03*
X148250000Y-110360000D03*
%TD*%
D17*
%TO.C,J5*%
X100040000Y-123920000D03*
X102580000Y-123920000D03*
X105120000Y-123920000D03*
%TD*%
D18*
%TO.C,SW1*%
X103375000Y-83575000D03*
X105875000Y-83575000D03*
X108375000Y-83575000D03*
%TD*%
D15*
%TO.C,J4*%
X100620000Y-92750000D03*
D16*
X103160000Y-92750000D03*
X105700000Y-92750000D03*
X108240000Y-92750000D03*
X110780000Y-92750000D03*
%TD*%
M02*
